<svg width="1768" height="79" viewBox="0 0 1768 79" fill="none" xmlns="http://www.w3.org/2000/svg">
<rect width="1768" height="79" fill="white"/>
<line y1="0.5" x2="1768" y2="0.5" stroke="#DEDEDE"/>
<path d="M138.688 41.3906C138.547 42.5938 138.102 43.5234 137.352 44.1797C136.607 44.8307 135.615 45.1562 134.375 45.1562C133.031 45.1562 131.953 44.6745 131.141 43.7109C130.333 42.7474 129.93 41.4583 129.93 39.8438V38.75C129.93 37.6927 130.117 36.763 130.492 35.9609C130.872 35.1589 131.409 34.5443 132.102 34.1172C132.794 33.6849 133.596 33.4688 134.508 33.4688C135.716 33.4688 136.685 33.8073 137.414 34.4844C138.143 35.1562 138.568 36.0885 138.688 37.2812H137.18C137.049 36.375 136.766 35.7188 136.328 35.3125C135.896 34.9062 135.289 34.7031 134.508 34.7031C133.549 34.7031 132.797 35.0573 132.25 35.7656C131.708 36.474 131.438 37.4818 131.438 38.7891V39.8906C131.438 41.125 131.695 42.1068 132.211 42.8359C132.727 43.5651 133.448 43.9297 134.375 43.9297C135.208 43.9297 135.846 43.7422 136.289 43.3672C136.737 42.987 137.034 42.3281 137.18 41.3906H138.688ZM140.133 40.6953C140.133 39.8672 140.294 39.1224 140.617 38.4609C140.945 37.7995 141.398 37.2891 141.977 36.9297C142.56 36.5703 143.224 36.3906 143.969 36.3906C145.12 36.3906 146.049 36.7891 146.758 37.5859C147.471 38.3828 147.828 39.4427 147.828 40.7656V40.8672C147.828 41.6901 147.669 42.4297 147.352 43.0859C147.039 43.737 146.589 44.2448 146 44.6094C145.417 44.974 144.745 45.1562 143.984 45.1562C142.839 45.1562 141.909 44.7578 141.195 43.9609C140.487 43.1641 140.133 42.1094 140.133 40.7969V40.6953ZM141.586 40.8672C141.586 41.8047 141.802 42.5573 142.234 43.125C142.672 43.6927 143.255 43.9766 143.984 43.9766C144.719 43.9766 145.302 43.6901 145.734 43.1172C146.167 42.5391 146.383 41.7318 146.383 40.6953C146.383 39.7682 146.161 39.0182 145.719 38.4453C145.281 37.8672 144.698 37.5781 143.969 37.5781C143.255 37.5781 142.68 37.862 142.242 38.4297C141.805 38.9974 141.586 39.8099 141.586 40.8672ZM156.781 40.8672C156.781 42.1536 156.487 43.1901 155.898 43.9766C155.31 44.763 154.513 45.1562 153.508 45.1562C152.482 45.1562 151.674 44.8307 151.086 44.1797V48.25H149.641V36.5469H150.961L151.031 37.4844C151.62 36.7552 152.438 36.3906 153.484 36.3906C154.5 36.3906 155.302 36.7734 155.891 37.5391C156.484 38.3047 156.781 39.3698 156.781 40.7344V40.8672ZM155.336 40.7031C155.336 39.75 155.133 38.9974 154.727 38.4453C154.32 37.8932 153.763 37.6172 153.055 37.6172C152.18 37.6172 151.523 38.0052 151.086 38.7812V42.8203C151.518 43.5911 152.18 43.9766 153.07 43.9766C153.763 43.9766 154.312 43.7031 154.719 43.1562C155.13 42.6042 155.336 41.7865 155.336 40.7031ZM161.297 42.8828L163.266 36.5469H164.812L161.414 46.3047C160.888 47.7109 160.052 48.4141 158.906 48.4141L158.633 48.3906L158.094 48.2891V47.1172L158.484 47.1484C158.974 47.1484 159.354 47.0495 159.625 46.8516C159.901 46.6536 160.128 46.2917 160.305 45.7656L160.625 44.9062L157.609 36.5469H159.188L161.297 42.8828ZM170.195 37.8438C169.977 37.8073 169.74 37.7891 169.484 37.7891C168.536 37.7891 167.893 38.1927 167.555 39V45H166.109V36.5469H167.516L167.539 37.5234C168.013 36.7682 168.685 36.3906 169.555 36.3906C169.836 36.3906 170.049 36.4271 170.195 36.5V37.8438ZM173.102 45H171.656V36.5469H173.102V45ZM171.539 34.3047C171.539 34.0703 171.609 33.8724 171.75 33.7109C171.896 33.5495 172.109 33.4688 172.391 33.4688C172.672 33.4688 172.885 33.5495 173.031 33.7109C173.177 33.8724 173.25 34.0703 173.25 34.3047C173.25 34.5391 173.177 34.7344 173.031 34.8906C172.885 35.0469 172.672 35.125 172.391 35.125C172.109 35.125 171.896 35.0469 171.75 34.8906C171.609 34.7344 171.539 34.5391 171.539 34.3047ZM175.078 40.7031C175.078 39.3854 175.383 38.3385 175.992 37.5625C176.602 36.7812 177.409 36.3906 178.414 36.3906C179.445 36.3906 180.25 36.7552 180.828 37.4844L180.898 36.5469H182.219V44.7969C182.219 45.8906 181.893 46.7526 181.242 47.3828C180.596 48.013 179.727 48.3281 178.633 48.3281C178.023 48.3281 177.427 48.1979 176.844 47.9375C176.26 47.6771 175.815 47.3203 175.508 46.8672L176.258 46C176.878 46.7656 177.635 47.1484 178.531 47.1484C179.234 47.1484 179.781 46.9505 180.172 46.5547C180.568 46.1589 180.766 45.6016 180.766 44.8828V44.1562C180.188 44.8229 179.398 45.1562 178.398 45.1562C177.409 45.1562 176.607 44.7578 175.992 43.9609C175.383 43.1641 175.078 42.0781 175.078 40.7031ZM176.531 40.8672C176.531 41.8203 176.727 42.5703 177.117 43.1172C177.508 43.6589 178.055 43.9297 178.758 43.9297C179.669 43.9297 180.339 43.5156 180.766 42.6875V38.8281C180.323 38.0208 179.659 37.6172 178.773 37.6172C178.07 37.6172 177.521 37.8906 177.125 38.4375C176.729 38.9844 176.531 39.7943 176.531 40.8672ZM185.852 37.5703C186.492 36.7839 187.326 36.3906 188.352 36.3906C190.138 36.3906 191.039 37.3984 191.055 39.4141V45H189.609V39.4062C189.604 38.7969 189.464 38.3464 189.188 38.0547C188.917 37.763 188.492 37.6172 187.914 37.6172C187.445 37.6172 187.034 37.7422 186.68 37.9922C186.326 38.2422 186.049 38.5703 185.852 38.9766V45H184.406V33H185.852V37.5703ZM195.18 34.5V36.5469H196.758V37.6641H195.18V42.9062C195.18 43.2448 195.25 43.5 195.391 43.6719C195.531 43.8385 195.771 43.9219 196.109 43.9219C196.276 43.9219 196.505 43.8906 196.797 43.8281V45C196.417 45.1042 196.047 45.1562 195.688 45.1562C195.042 45.1562 194.555 44.9609 194.227 44.5703C193.898 44.1797 193.734 43.625 193.734 42.9062V37.6641H192.195V36.5469H193.734V34.5H195.18ZM210.07 40.3359C210.07 41.1328 209.844 41.7422 209.391 42.1641C208.943 42.5807 208.307 42.7891 207.484 42.7891C206.667 42.7891 206.01 42.5156 205.516 41.9688C205.026 41.4167 204.781 40.6667 204.781 39.7188V38.8594C204.781 37.9427 205.029 37.2109 205.523 36.6641C206.023 36.112 206.677 35.8359 207.484 35.8359C208.318 35.8359 208.958 36.0495 209.406 36.4766C209.854 36.9036 210.078 37.5052 210.078 38.2812H208.938C208.938 37.7656 208.812 37.3984 208.562 37.1797C208.318 36.9557 207.958 36.8438 207.484 36.8438C206.995 36.8438 206.609 37.0234 206.328 37.3828C206.047 37.7422 205.906 38.2422 205.906 38.8828V39.7656C205.906 40.3906 206.047 40.8828 206.328 41.2422C206.609 41.6016 206.995 41.7812 207.484 41.7812C207.964 41.7812 208.323 41.6719 208.562 41.4531C208.807 41.2344 208.93 40.862 208.93 40.3359H210.07ZM202.938 39.3047C202.938 40.2005 203.146 41.0312 203.562 41.7969C203.979 42.5573 204.544 43.1536 205.258 43.5859C205.977 44.0182 206.753 44.2344 207.586 44.2344C208.419 44.2344 209.193 44.0182 209.906 43.5859C210.62 43.1536 211.185 42.5573 211.602 41.7969C212.018 41.0312 212.227 40.2005 212.227 39.3047C212.227 38.4193 212.021 37.599 211.609 36.8438C211.198 36.0885 210.633 35.4948 209.914 35.0625C209.201 34.625 208.424 34.4062 207.586 34.4062C206.753 34.4062 205.977 34.6224 205.258 35.0547C204.539 35.4818 203.971 36.0755 203.555 36.8359C203.143 37.5964 202.938 38.4193 202.938 39.3047ZM202.039 39.3047C202.039 38.2526 202.281 37.276 202.766 36.375C203.255 35.474 203.93 34.7656 204.789 34.25C205.654 33.7292 206.586 33.4688 207.586 33.4688C208.586 33.4688 209.516 33.7292 210.375 34.25C211.234 34.7656 211.906 35.474 212.391 36.375C212.88 37.276 213.125 38.2526 213.125 39.3047C213.125 40.3307 212.891 41.2917 212.422 42.1875C211.953 43.0833 211.286 43.8047 210.422 44.3516C209.562 44.8932 208.617 45.1641 207.586 45.1641C206.56 45.1641 205.615 44.8958 204.75 44.3594C203.891 43.8177 203.224 43.099 202.75 42.2031C202.276 41.3073 202.039 40.3411 202.039 39.3047ZM226.273 45H218.82V43.9609L222.758 39.5859C223.341 38.9245 223.742 38.388 223.961 37.9766C224.185 37.5599 224.297 37.1302 224.297 36.6875C224.297 36.0938 224.117 35.6068 223.758 35.2266C223.398 34.8464 222.919 34.6562 222.32 34.6562C221.602 34.6562 221.042 34.862 220.641 35.2734C220.245 35.6797 220.047 36.2474 220.047 36.9766H218.602C218.602 35.9297 218.938 35.0833 219.609 34.4375C220.286 33.7917 221.19 33.4688 222.32 33.4688C223.378 33.4688 224.214 33.7474 224.828 34.3047C225.443 34.8568 225.75 35.5938 225.75 36.5156C225.75 37.6354 225.036 38.9688 223.609 40.5156L220.562 43.8203H226.273V45ZM234.938 40.1484C234.938 41.8411 234.648 43.099 234.07 43.9219C233.492 44.7448 232.589 45.1562 231.359 45.1562C230.146 45.1562 229.247 44.7552 228.664 43.9531C228.081 43.1458 227.779 41.9427 227.758 40.3438V38.4141C227.758 36.7422 228.047 35.5 228.625 34.6875C229.203 33.875 230.109 33.4688 231.344 33.4688C232.568 33.4688 233.469 33.862 234.047 34.6484C234.625 35.4297 234.922 36.638 234.938 38.2734V40.1484ZM233.492 38.1719C233.492 36.9479 233.32 36.0573 232.977 35.5C232.633 34.9375 232.089 34.6562 231.344 34.6562C230.604 34.6562 230.065 34.9349 229.727 35.4922C229.388 36.0495 229.214 36.9062 229.203 38.0625V40.375C229.203 41.6042 229.38 42.513 229.734 43.1016C230.094 43.6849 230.635 43.9766 231.359 43.9766C232.073 43.9766 232.602 43.7005 232.945 43.1484C233.294 42.5964 233.477 41.7266 233.492 40.5391V38.1719ZM244.242 45H236.789V43.9609L240.727 39.5859C241.31 38.9245 241.711 38.388 241.93 37.9766C242.154 37.5599 242.266 37.1302 242.266 36.6875C242.266 36.0938 242.086 35.6068 241.727 35.2266C241.367 34.8464 240.888 34.6562 240.289 34.6562C239.57 34.6562 239.01 34.862 238.609 35.2734C238.214 35.6797 238.016 36.2474 238.016 36.9766H236.57C236.57 35.9297 236.906 35.0833 237.578 34.4375C238.255 33.7917 239.159 33.4688 240.289 33.4688C241.346 33.4688 242.182 33.7474 242.797 34.3047C243.411 34.8568 243.719 35.5938 243.719 36.5156C243.719 37.6354 243.005 38.9688 241.578 40.5156L238.531 43.8203H244.242V45ZM250.523 45H249.07V35.3672L246.156 36.4375V35.125L250.297 33.5703H250.523V45Z" fill="#3E3E3E"/>
</svg>
